<svg width="17" height="18" viewBox="0 0 17 18" fill="none" xmlns="http://www.w3.org/2000/svg">
<g id="Group 21">
<path id="Arrow 3" d="M15.8677 5.91998C16.1143 5.67334 16.1143 5.27344 15.8677 5.0268L11.8484 1.00745C11.6017 0.760805 11.2018 0.760805 10.9552 1.00745C10.7085 1.2541 10.7085 1.65399 10.9552 1.90064L14.5279 5.47339L10.9552 9.04614C10.7085 9.29279 10.7085 9.69268 10.9552 9.93933C11.2018 10.186 11.6017 10.186 11.8484 9.93933L15.8677 5.91998ZM1.52637 6.10497L15.4211 6.10497L15.4211 4.84181L1.52637 4.84181L1.52637 6.10497Z" fill="white"/>
<path id="Arrow 4" d="M1.07981 11.9743C0.833164 12.221 0.833164 12.6208 1.07981 12.8675L5.09916 16.8868C5.3458 17.1335 5.7457 17.1335 5.99234 16.8868C6.23899 16.6402 6.23899 16.2403 5.99234 15.9936L2.41959 12.4209L5.99234 8.84815C6.23899 8.6015 6.23899 8.20161 5.99234 7.95496C5.7457 7.70831 5.3458 7.70831 5.09916 7.95496L1.07981 11.9743ZM15.4211 11.7893L1.52641 11.7893V13.0525L15.4211 13.0525V11.7893Z" fill="white"/>
</g>
</svg>
