<?xml version="1.0" standalone="no"?>
<!DOCTYPE svg PUBLIC "-//W3C//DTD SVG 20010904//EN"
 "http://www.w3.org/TR/2001/REC-SVG-20010904/DTD/svg10.dtd">
<svg version="1.0" xmlns="http://www.w3.org/2000/svg"
 width="375.000000pt" height="416.000000pt" viewBox="0 0 375.000000 416.000000"
 preserveAspectRatio="xMidYMid meet">

<g transform="translate(0.000000,416.000000) scale(0.100000,-0.100000)"
fill="#ffffff" stroke="none">
<path d="M1050 4133 c-24 -9 -61 -46 -76 -75 -9 -17 -14 -59 -14 -118 0 -49
-3 -90 -7 -90 -40 0 -215 -36 -278 -57 -367 -120 -580 -377 -656 -793 -20
-110 -20 -2020 0 -2130 66 -365 242 -610 533 -744 92 -43 188 -71 303 -91 76
-13 229 -15 1010 -16 559 0 948 4 991 10 276 40 492 148 642 324 99 115 162
242 210 422 l26 100 4 1019 c2 889 1 1030 -13 1110 -68 398 -283 662 -634 783
-54 18 -141 40 -194 48 -54 8 -102 17 -107 20 -6 3 -10 48 -10 98 0 73 -4 98
-19 121 -59 89 -183 89 -242 0 -15 -23 -19 -48 -19 -116 0 -48 -4 -89 -9 -93
-8 -4 -378 -6 -1073 -5 l-168 0 0 80 c0 133 -39 191 -132 196 -29 2 -60 1 -68
-3z m1447 -662 c2 -104 11 -126 74 -169 28 -19 43 -23 83 -19 42 4 55 10 88
45 l38 41 0 90 c0 49 4 92 9 95 13 8 129 -12 201 -36 107 -34 180 -78 261
-158 85 -84 132 -168 168 -300 20 -71 42 -265 32 -275 -2 -3 -715 -5 -1584 -5
l-1580 0 7 82 c26 309 139 504 357 614 65 32 179 66 267 78 l42 6 0 -87 c0
-70 4 -95 20 -121 42 -68 132 -92 197 -52 53 32 66 62 71 159 2 47 5 92 7 98
3 10 138 12 622 10 l618 -2 2 -94z m962 -1683 c-1 -733 -6 -843 -38 -969 -34
-134 -84 -224 -170 -309 -129 -127 -270 -181 -515 -200 -168 -12 -1557 -12
-1721 0 -159 12 -250 33 -350 79 -183 86 -287 221 -347 451 -22 84 -22 97 -25
868 l-4 782 1586 0 1585 0 -1 -702z"/>
<path d="M1113 1961 c-109 -50 -137 -215 -51 -301 93 -94 251 -72 307 42 37
77 21 179 -36 230 -53 49 -149 61 -220 29z"/>
<path d="M1783 1961 c-82 -38 -123 -147 -89 -236 44 -114 184 -159 286 -91 52
34 80 90 80 158 0 65 -22 112 -73 152 -50 40 -140 47 -204 17z"/>
<path d="M2465 1966 c-17 -7 -45 -29 -62 -49 -89 -101 -54 -250 69 -302 144
-60 298 75 258 226 -13 48 -64 107 -107 125 -41 17 -119 17 -158 0z"/>
<path d="M1138 1300 c-107 -32 -158 -161 -107 -268 51 -104 199 -135 294 -60
82 64 86 220 8 290 -46 42 -129 58 -195 38z"/>
<path d="M1806 1300 c-63 -19 -125 -109 -126 -181 0 -76 56 -156 126 -179 20
-7 61 -10 90 -8 63 5 118 42 146 99 36 69 16 182 -40 232 -44 40 -131 56 -196
37z"/>
<path d="M2465 1296 c-43 -18 -92 -78 -105 -127 -21 -78 6 -152 76 -205 33
-26 46 -29 109 -29 63 0 76 3 109 29 120 91 107 259 -25 326 -44 23 -119 26
-164 6z"/>
</g>
</svg>
